<svg xmlns="http://www.w3.org/2000/svg" viewBox="0 0 1039.5 809"><defs><style>.cls-1{fill:#5d2689;}.cls-2{fill:#8736aa;}.cls-3{fill:#f5bd1f;}.cls-4{fill:#fff;}.cls-5{fill:#d8d4dd;}.cls-6{fill:#d7ceef;}.cls-7{fill:#ff605c;}.cls-8{fill:#ffbd44;}.cls-9{fill:#00ca4e;}.cls-10,.cls-16,.cls-17,.cls-20,.cls-25{fill:none;}.cls-10{stroke:#6c4596;}.cls-10,.cls-17,.cls-20,.cls-25{stroke-linecap:round;stroke-miterlimit:10;stroke-width:4px;}.cls-11{fill:#9e70df;}.cls-12{fill:#500075;}.cls-13{fill:#5b0080;}.cls-14{fill:#b7b7b7;}.cls-15{fill:#af87e2;}.cls-17{stroke:#7e5e9f;}.cls-18{fill:#350557;}.cls-19{fill:#ba97ee;}.cls-20{stroke:#e2ae00;}.cls-21{fill:#bcdbe9;}.cls-22{fill:#daab00;}.cls-23{fill:#e8c000;}.cls-24{fill:#d1e7f1;}.cls-25{stroke:#e5be15;}</style></defs><g id="Layer_1" data-name="Layer 1"><path class="cls-1" d="M987.5,239.5c80,104,212,141,250,205,40.85,68.79,68,157,174,208C1584,735.47,1741,626.84,1805,597c20.41-9.51,60.47-25.7,115-46.79V-1H1117.59L880.5.5C977.22,97.2,925.27,158.6,987.5,239.5Z" transform="translate(-880.5 1)"/><circle class="cls-2" cx="73.5" cy="120" r="24"/><circle class="cls-3" cx="59.5" cy="193" r="20"/><circle class="cls-4" cx="404" cy="607.5" r="9.5"/><rect class="cls-5" x="138.5" y="120" width="656" height="120" rx="20"/><rect class="cls-6" x="138.5" y="199" width="656" height="609"/><circle class="cls-7" cx="752" cy="161.5" r="16"/><circle class="cls-8" cx="691" cy="161.5" r="16"/><circle class="cls-9" cx="627" cy="161.5" r="16"/><path class="cls-4" d="M1411.5,653.5c-106-51-133.15-139.21-174-208-33.34-56.15-139-91.53-218.5-169.61V808h656V658.19C1610,683.36,1512.36,702,1411.5,653.5Z" transform="translate(-880.5 1)"/><circle class="cls-1" cx="510" cy="713.5" r="26.5"/><circle class="cls-3" cx="470.5" cy="674" r="13"/><path class="cls-10" d="M1256.3,322.5c-4.07-9.23-20.16-11-36-4.07" transform="translate(-880.5 1)"/><path class="cls-11" d="M1113.32,334.36c-10.78-7.32-28.25-3-35.17,4.3-6.1,6.4-4.89,26.67,17.94,31.47,20.36,4.28,72.09,1.6,71.3.22C1164.63,365.51,1126.4,343.25,1113.32,334.36Z" transform="translate(-880.5 1)"/><path class="cls-12" d="M1196.33,373.73a28,28,0,0,1-28,28,28.86,28.86,0,0,1-25-15.47,25.08,25.08,0,0,1-3-12.53c.48-12.05,10.75-28,28-28A28,28,0,0,1,1196.33,373.73Z" transform="translate(-880.5 1)"/><path class="cls-13" d="M1134.33,389.73c-41,19-40.8,78.45,6,96,8,3,22.13,3.19,28-1,2-1.43-3-4.25-6-19-1.11-5.41,23-46,9-64C1160.47,387.77,1138.11,388,1134.33,389.73Z" transform="translate(-880.5 1)"/><path class="cls-14" d="M1242.75,339a35.6,35.6,0,0,1-36,35.18c-13.81-.12-26.13-8.75-31.79-19.89a31.79,31.79,0,0,1-3.63-15.92c.75-15.28,14-35.38,36-35.18A35.61,35.61,0,0,1,1242.75,339Z" transform="translate(-880.5 1)"/><path class="cls-14" d="M1186.33,344.73" transform="translate(-880.5 1)"/><path class="cls-15" d="M1131,315.27c-7-11-24.76-13.93-34-10-8.13,3.46-15,22.55,4,36,17,12,65.56,30,65.38,28.46C1165.71,364.2,1139.44,328.61,1131,315.27Z" transform="translate(-880.5 1)"/><path class="cls-16" d="M1207.33,316.73a99.94,99.94,0,0,0,100,100" transform="translate(-880.5 1)"/><path class="cls-17" d="M1255.33,307.73c-6.37-7.81-22.37-5.29-35.78,5.64" transform="translate(-880.5 1)"/><path class="cls-18" d="M1168.33,484.73c1.79-1.27-2-3.65-4.95-14.57-8,2.45-14.26,10.27-16.84,17.15C1154.31,488.59,1163.79,488,1168.33,484.73Z" transform="translate(-880.5 1)"/><path class="cls-18" d="M1107,420.05l67,10a53.27,53.27,0,0,0,1.54-16.76l-60-8.93A50.17,50.17,0,0,0,1107,420.05Z" transform="translate(-880.5 1)"/><path class="cls-18" d="M1104.84,429.21a51.69,51.69,0,0,0,.52,17.05l60.26,8.75c1.78-4.58,4-10.18,5.9-16.13Z" transform="translate(-880.5 1)"/><path class="cls-19" d="M1242.69,341.46c-10.64-11.14-23.06-21.27-31.28-18.75-13.74,4.2-17,7.28-22,29.13s26,22.89,26,22.89l3.69-.64A36.79,36.79,0,0,0,1242.69,341.46Z" transform="translate(-880.5 1)"/><path class="cls-13" d="M1212.9,324.27a13.75,13.75,0,0,0-3.22-1c-12.29,3.8-15.49,7.39-20.27,27.47a17.11,17.11,0,0,0-.41,6.21,29.15,29.15,0,0,0,10.75,8.48c11.56,5.43,24.16,3,28.14-5.5S1224.46,329.7,1212.9,324.27Z" transform="translate(-880.5 1)"/><rect class="cls-14" x="1181.22" y="327.32" width="12.46" height="71.8" rx="5" transform="translate(-724.97 1054.95) rotate(-50.81)"/><ellipse cx="1208.66" cy="342.23" rx="7.62" ry="12.06" transform="translate(-730.28 1019.74) rotate(-48.39)"/><path class="cls-20" d="M1436.39,565.36c4.06-9.23,20.16-11,36-4.07" transform="translate(-880.5 1)"/><path class="cls-21" d="M1579.36,577.23c10.79-7.33,28.26-3,35.18,4.29,6.1,6.4,4.89,26.67-17.94,31.47-20.36,4.28-72.09,1.6-71.31.22C1528.06,608.37,1566.28,586.11,1579.36,577.23Z" transform="translate(-880.5 1)"/><path class="cls-22" d="M1496.36,616.59a28,28,0,0,0,28,28,28.85,28.85,0,0,0,25-15.47,25,25,0,0,0,3-12.53c-.48-12.05-10.75-28-28-28A28,28,0,0,0,1496.36,616.59Z" transform="translate(-880.5 1)"/><path class="cls-23" d="M1558.36,632.59c41,19,40.79,78.45-6,96-8,3-22.14,3.19-28-1-2-1.43,3-4.25,6-19,1.11-5.41-23-46-9-64C1532.22,630.63,1554.58,630.84,1558.36,632.59Z" transform="translate(-880.5 1)"/><path class="cls-14" d="M1449.93,581.83A35.61,35.61,0,0,0,1486,617c13.81-.12,26.12-8.75,31.78-19.89a31.57,31.57,0,0,0,3.63-15.92c-.74-15.27-14-35.37-36-35.18A35.61,35.61,0,0,0,1449.93,581.83Z" transform="translate(-880.5 1)"/><path class="cls-14" d="M1506.36,587.59" transform="translate(-880.5 1)"/><path class="cls-24" d="M1561.74,558.13c7-11,24.76-13.93,34-10,8.13,3.46,15,22.55-4,36-17,12-65.56,30-65.38,28.46C1527,607.06,1553.25,571.47,1561.74,558.13Z" transform="translate(-880.5 1)"/><path class="cls-16" d="M1485.36,559.59a99.94,99.94,0,0,1-100,100" transform="translate(-880.5 1)"/><path class="cls-25" d="M1437.36,550.59c6.36-7.81,22.37-5.29,35.78,5.64" transform="translate(-880.5 1)"/><path d="M1524.36,727.59c-1.79-1.27,2-3.65,4.94-14.57,8,2.45,14.26,10.28,16.85,17.15C1538.38,731.45,1528.9,730.84,1524.36,727.59Z" transform="translate(-880.5 1)"/><path d="M1585.72,662.92l-67,10a53,53,0,0,1-1.55-16.76l60-8.93A50.39,50.39,0,0,1,1585.72,662.92Z" transform="translate(-880.5 1)"/><path d="M1587.84,672.07a51.41,51.41,0,0,1-.51,17l-60.26,8.75c-1.79-4.58-4-10.17-5.91-16.13Z" transform="translate(-880.5 1)"/><path class="cls-24" d="M1450,584.32c10.65-11.14,23.07-21.27,31.29-18.75,13.73,4.2,17,7.28,22,29.13s-26,22.89-26,22.89l-3.69-.64A36.82,36.82,0,0,1,1450,584.32Z" transform="translate(-880.5 1)"/><path class="cls-23" d="M1479.79,567.13a13.6,13.6,0,0,1,3.22-1c12.29,3.8,15.49,7.39,20.27,27.47a17.34,17.34,0,0,1,.41,6.21,29.05,29.05,0,0,1-10.75,8.48c-11.57,5.43-24.16,3-28.14-5.5S1468.23,572.57,1479.79,567.13Z" transform="translate(-880.5 1)"/><rect class="cls-14" x="1469.34" y="599.85" width="71.8" height="12.46" rx="5" transform="translate(-924.84 1088.62) rotate(-39.19)"/><ellipse cx="1484.03" cy="585.09" rx="12.06" ry="7.62" transform="translate(-894.63 1133.99) rotate(-41.61)"/></g></svg>