<?xml version="1.0" encoding="UTF-8"?><svg xmlns="http://www.w3.org/2000/svg" viewBox="0 0 1920 994"><defs><style>.c{fill:none;}.d{fill:#e8c000;}.e{fill:#fff;}.f{fill:#f5bd1f;}.g{fill:#e5be15;}.h{fill:#6c4694;}.i{fill:#7d5f9c;}.j{fill:#8736aa;}.k{fill:#b5b5b5;}.l{fill:#b7b7b7;}.m{fill:#b895ec;}.n{fill:#bfaaef;}.o{fill:#bcdbe9;}.p{fill:#d1e7f1;}.q{fill:#daab00;}.r{fill:#ad85e0;}.s{fill:#e2ae00;}.t{fill:#9c70dd;}.u{fill:#5b0080;}.v{fill:#5d2689;}.w{fill:#350357;}.x{fill:#500075;}</style></defs><g id="a"/><g id="b"><rect class="n" x="0" width="1920" height="994.0001"/><path class="v" d="M1130.3602,189.2444c67.7439,81.9933,179.5213,111.164,211.6997,161.6215,34.5886,54.2368,57.5823,123.7784,147.343,163.9867,146.0302,65.4142,279.028-20.2333,333.2153-43.7561,17.279-7.5008,51.2069-20.2586,97.3819-36.8929V2h-879c80.1815,75.5544,36.9347,123.7917,89.3602,187.2444Z"/><circle class="j" cx="1090" cy="76" r="24"/><circle class="f" cx="1094" cy="129" r="20"/><circle class="e" cx="1392.5" cy="435.5" r="9.5"/><circle class="v" cx="1582.5" cy="587.5" r="26.5"/><circle class="f" cx="1452" cy="506" r="13"/><g><path class="s" d="M1584.3877,441.3574c-.2695,0-.543-.0547-.8057-.1709-1.0107-.4453-1.4688-1.626-1.0234-2.6367,2.2637-5.1387,7.6582-8.4365,15.1895-9.2871,7.1426-.8096,15.4668,.6846,23.4404,4.1992,1.0107,.4453,1.4688,1.626,1.0234,2.6367-.4463,1.0107-1.625,1.4668-2.6367,1.0234-7.3389-3.2334-14.9375-4.6133-21.3779-3.8848-6.0586,.6836-10.3115,3.1436-11.9785,6.9258-.3301,.748-1.0625,1.1943-1.8311,1.1943Z"/><path class="o" d="M1727.362,451.2255c10.7864-7.3249,28.2545-2.9767,35.179,4.2941,6.0957,6.4005,4.8849,26.6696-17.9403,31.4666-20.3638,4.2797-72.0955,1.6016-71.3067,.221,2.7637-4.8368,40.9876-27.0991,54.068-35.9818Z"/><path class="q" d="M1644.3569,490.5936c0,15.464,12.536,28,28,28,10.8229,0,20.535-6.7246,25.0475-15.4714,.8409-1.6301,3.1982-6.3353,2.9525-12.5286-.4783-12.0557-10.75-28-28-28-15.464,0-28,12.536-28,28Z"/><path class="d" d="M1706.3569,506.5936c41,19,40.7977,78.4509-6,96-8,3-22.1321,3.1914-28-1-2.0075-1.4339,2.9782-4.2494,6-19,1.1087-5.4123-23-46-9-64,10.8604-13.9634,33.2212-13.7512,37-12Z"/><path class="l" d="M1597.9332,455.8275c.171,19.6053,16.3042,35.3591,36.0345,35.1871,13.8088-.1204,26.1261-8.7541,31.7868-19.8936,1.0549-2.076,4.0105-8.0676,3.6285-15.9167-.7435-15.279-14.0254-35.379-36.0345-35.1871-19.7303,.1721-35.5863,16.2049-35.4153,35.8102Z"/><path class="p" d="M1709.7365,432.1296c7-11,24.7609-13.931,34-10,8.1332,3.4604,15.0548,22.5495-4,36-17,12-65.5567,30.044-65.3796,28.4639,.6204-5.5361,26.8909-41.1245,35.3796-54.4639Z"/><path class="c" d="M1633.3569,433.5936c0,55.2734-44.7266,100-100,100"/><path class="g" d="M1621.1367,432.2305c-.4443,0-.8916-.1475-1.2627-.4492-12.3105-10.0322-27.4102-12.7471-32.9668-5.9238-.6982,.8555-1.958,.9834-2.8145,.2871-.8564-.6982-.9844-1.958-.2871-2.8145,7.167-8.7959,24.1201-6.4443,38.5957,5.3496,.8564,.6982,.9844,1.958,.2871,2.8145-.3955,.4844-.9717,.7363-1.5518,.7363Z"/><path d="M1672.3569,601.5936c-1.7874-1.2767,1.9683-3.6565,4.9463-14.5725,8.0447,2.4454,14.2585,10.2744,16.8458,17.1497-7.7678,1.2767-17.2508,.6666-21.7921-2.5771Z"/><path d="M1733.7215,536.9157l-67.0214,9.9735c-1.3356-5.7707-2.0576-11.5432-1.5485-16.7573l60.0373-8.9343c3.8239,4.7631,6.6739,10.098,8.5326,15.7181Z"/><path d="M1735.8445,546.0665c.7734,5.649,.6018,11.4197-.5164,17.0538l-60.2593,8.7457c-1.787-4.5755-4.0009-10.1706-5.9058-16.1217l66.6815-9.6777Z"/><path class="p" d="M1597.9929,458.3188c10.6435-11.1363,23.0677-21.2657,31.2858-18.7507,13.736,4.2036,17,7.2836,22,29.1343,5,21.8507-26,22.8912-26,22.8912l-3.6913-.6402c-13.1572-4.8824-22.7593-17.5255-23.5945-32.6346Z"/><path class="d" d="M1627.7913,441.1337c1.0763-.5055,2.1506-.8511,3.2174-1.0574,12.2869,3.8086,15.4879,7.3917,20.27,27.4766,.5491,2.3063,.6431,4.3582,.4125,6.2072-2.5826,3.3692-6.2557,6.3655-10.7527,8.4775-11.5641,5.4313-24.1625,2.9702-28.1392-5.4969-3.9767-8.4671,3.4278-30.1757,14.9919-35.607Z"/><rect class="l" x="1617.3426" y="473.849" width="71.797" height="12.4598" rx="5" ry="5" transform="translate(68.5878 1152.8017) rotate(-39.195)"/><ellipse cx="1632.0305" cy="459.0866" rx="12.0556" ry="7.6242" transform="translate(106.8724 1199.4763) rotate(-41.6055)"/></g><path class="v" d="M736.638,794.203c-63.1968-87.4901-167.4716-118.6163-197.4901-172.4564-32.267-57.8728-53.7173-132.0764-137.4531-174.9801-136.2284-69.7995-260.2993,21.5898-310.8494,46.6894C74.7263,501.4595,43.0756,515.0725,0,532.822v461.178H820.0002c-74.7996-80.6195-34.4556-132.0905-83.3622-199.797Z"/><circle class="v" cx="261.5" cy="242.5" r="26.5"/><circle class="e" cx="399.5" cy="368.5" r="9.5"/><g><path class="h" d="M276.897,377.9702c-.7686,0-1.5015-.4453-1.8311-1.1938-3.5488-8.0527-18.8257-9.4438-33.3564-3.0405-1.0103,.4468-2.1909-.0122-2.6367-1.0234-.4453-1.0112,.0127-2.1914,1.0234-2.6367,17.0884-7.5293,34.0557-5.2939,38.6299,5.0874,.4453,1.0107-.0127,2.1914-1.0234,2.6367-.2622,.1157-.5361,.1704-.8057,.1704Z"/><path class="t" d="M133.9229,387.8391c-10.7864-7.3249-28.2545-2.9767-35.179,4.2941-6.0957,6.4005-4.8849,26.6696,17.9403,31.4666,20.3638,4.2797,72.0955,1.6016,71.3067,.221-2.7637-4.8368-40.9876-27.0991-54.068-35.9818Z"/><path class="x" d="M216.928,427.2071c0,15.464-12.536,28-28,28-10.8229,0-20.535-6.7246-25.0475-15.4714-.8409-1.6301-3.1982-6.3353-2.9525-12.5286,.4783-12.0557,10.75-28,28-28,15.464,0,28,12.536,28,28Z"/><path class="u" d="M154.928,443.2071c-41,19-40.7977,78.4509,6,96,8,3,22.1321,3.1914,28-1,2.0075-1.4339-2.9782-4.2494-6-19-1.1087-5.4123,23-46,9-64-10.8604-13.9634-33.2212-13.7512-37-12Z"/><path class="k" d="M263.3517,392.441c-.171,19.6053-16.3042,35.3591-36.0345,35.1871-13.8088-.1204-26.1261-8.7541-31.7868-19.8936-1.0549-2.076-4.0105-8.0676-3.6285-15.9167,.7435-15.279,14.0254-35.379,36.0345-35.1871,19.7303,.1721,35.5863,16.2049,35.4153,35.8102Z"/><path class="r" d="M151.5484,368.7432c-7-11-24.7609-13.931-34-10-8.1332,3.4604-15.0548,22.5495,4,36,17,12,65.5567,30.044,65.3796,28.4639-.6204-5.5361-26.8909-41.1245-35.3796-54.4639Z"/><path class="c" d="M227.928,370.2071c0,55.2734,44.7266,100,100,100"/><path class="i" d="M240.1484,368.8442c-.5806,0-1.1562-.2515-1.5513-.7368-.6978-.856-.5693-2.1157,.2871-2.8135,14.4741-11.7944,31.4272-14.144,38.5942-5.3506,.6978,.8564,.5693,2.1162-.2866,2.814-.8564,.6973-2.1172,.5693-2.814-.2866-5.5591-6.8213-20.6558-4.1079-32.9673,5.9238-.3711,.3027-.8179,.4497-1.2622,.4497Z"/><path class="w" d="M188.928,538.2071c1.7874-1.2767-1.9683-3.6565-4.9463-14.5725-8.0447,2.4454-14.2585,10.2744-16.8458,17.1497,7.7678,1.2767,17.2508,.6666,21.7921-2.5771Z"/><path class="w" d="M127.5634,473.5292l67.0214,9.9735c1.3356-5.7707,2.0576-11.5432,1.5485-16.7573l-60.0373-8.9343c-3.8239,4.7631-6.6739,10.098-8.5326,15.7181Z"/><path class="w" d="M125.4404,482.6801c-.7734,5.649-.6018,11.4197,.5164,17.0538l60.2593,8.7457c1.787-4.5755,4.0009-10.1706,5.9058-16.1217l-66.6815-9.6777Z"/><path class="m" d="M263.292,394.9323c-10.6435-11.1363-23.0677-21.2657-31.2858-18.7507-13.736,4.2036-17,7.2836-22,29.1343-5,21.8507,26,22.8912,26,22.8912l3.6913-.6402c13.1572-4.8824,22.7593-17.5255,23.5945-32.6346Z"/><path class="u" d="M233.4936,377.7473c-1.0763-.5055-2.1506-.8511-3.2174-1.0574-12.2869,3.8086-15.4879,7.3917-20.27,27.4766-.5491,2.3063-.6431,4.3582-.4125,6.2072,2.5826,3.3692,6.2557,6.3655,10.7527,8.4775,11.5641,5.4313,24.1625,2.9702,28.1392-5.4969,3.9767-8.4671-3.4278-30.1757-14.9919-35.607Z"/><rect class="k" x="201.8139" y="380.794" width="12.4598" height="71.797" rx="5" ry="5" transform="translate(-246.3686 314.593) rotate(-50.805)"/><ellipse cx="229.2544" cy="395.7002" rx="7.6242" ry="12.0556" transform="translate(-218.8487 304.3776) rotate(-48.3945)"/></g><circle class="f" cx="742" cy="800" r="20"/><circle class="e" cx="699.5" cy="743.5" r="9.5"/></g></svg>