<?xml version="1.0" encoding="UTF-8"?><svg xmlns="http://www.w3.org/2000/svg" viewBox="0 0 1038.03 808"><defs><style>.c,.d,.e,.f,.g{fill:none;}.h{fill:#00ca4e;}.i{fill:#e8c000;}.j{fill:#fff;}.k{fill:#f5bd1f;}.l{fill:#ffbd44;}.m{fill:#ff605c;}.n{fill:#8736aa;}.o{fill:#b7b7b7;}.p{fill:#9e70df;}.q{fill:#ba97ee;}.r{fill:#af87e2;}.s{fill:#d7ceef;}.t{fill:#d8d4dd;}.u{fill:#bcdbe9;}.v{fill:#d1e7f1;}.w{fill:#daab00;}.x{fill:#5b0080;}.y{fill:#5d2689;}.a`{fill:#350557;}.aa{fill:#500075;}.d{stroke:#e2ae00;}.d,.e,.f,.g{stroke-linecap:round;stroke-miterlimit:10;stroke-width:4px;}.e{stroke:#6c4596;}.f{stroke:#7e5e9f;}.g{stroke:#e5be15;}</style></defs><g id="a"/><g id="b"><path class="y" d="M105.53,237.5c80,104,212,141,250,205,40.85,68.79,68,157,174,208,172.45,82.97,329.51-25.66,393.5-55.5,20.41-9.51,60.47-25.7,115-46.79V0H0C94.69,95.83,43.62,157.02,105.53,237.5Z"/><circle class="n" cx="72.03" cy="119" r="24"/><circle class="k" cx="58.03" cy="192" r="20"/><circle class="j" cx="402.53" cy="606.5" r="9.5"/><g><rect class="t" x="137.03" y="119" width="656" height="120" rx="20" ry="20"/><rect class="s" x="137.03" y="198" width="656" height="609"/></g><circle class="m" cx="750.53" cy="160.5" r="16"/><circle class="l" cx="689.53" cy="160.5" r="16"/><circle class="h" cx="625.53" cy="160.5" r="16"/><path class="j" d="M529.53,653.5c-106-51-133.15-139.21-174-208-33.34-56.15-139.05-91.53-218.5-169.61V808H793.03v-149.81c-64.99,25.17-162.64,43.84-263.5-4.69Z"/><circle class="y" cx="508.53" cy="712.5" r="26.5"/><circle class="k" cx="469.03" cy="673" r="13"/><g><path class="e" d="M374.32,322.5c-4.06-9.22-20.16-11.04-35.99-4.06"/><path class="p" d="M231.35,334.36c-10.79-7.32-28.25-2.98-35.18,4.29-6.1,6.4-4.88,26.67,17.94,31.47,20.36,4.28,72.1,1.6,71.31,.22-2.76-4.84-40.99-27.1-54.07-35.98Z"/><path class="aa" d="M314.36,373.73c0,15.46-12.54,28-28,28-10.82,0-20.54-6.72-25.05-15.47-.84-1.63-3.2-6.34-2.95-12.53,.48-12.06,10.75-28,28-28,15.46,0,28,12.54,28,28Z"/><path class="x" d="M252.36,389.73c-41,19-40.8,78.45,6,96,8,3,22.13,3.19,28-1,2.01-1.43-2.98-4.25-6-19-1.11-5.41,23-46,9-64-10.86-13.96-33.22-13.75-37-12Z"/><path class="o" d="M360.78,338.97c-.17,19.61-16.3,35.36-36.03,35.19-13.81-.12-26.13-8.75-31.79-19.89-1.05-2.08-4.01-8.07-3.63-15.92,.74-15.28,14.03-35.38,36.03-35.19,19.73,.17,35.59,16.2,35.42,35.81Z"/><path class="r" d="M248.98,315.27c-7-11-24.76-13.93-34-10-8.13,3.46-15.05,22.55,4,36,17,12,65.56,30.04,65.38,28.46-.62-5.54-26.89-41.12-35.38-54.46Z"/><path class="c" d="M325.36,316.73c0,55.27,44.73,100,100,100"/><path class="f" d="M373.36,307.73c-6.37-7.81-22.37-5.29-35.78,5.64"/><path class="a`" d="M286.36,484.73c1.79-1.28-1.97-3.66-4.95-14.57-8.04,2.45-14.26,10.27-16.85,17.15,7.77,1.28,17.25,.67,21.79-2.58Z"/><path class="a`" d="M224.99,420.05l67.02,9.97c1.34-5.77,2.06-11.54,1.55-16.76l-60.04-8.93c-3.82,4.76-6.67,10.1-8.53,15.72Z"/><path class="a`" d="M222.87,429.21c-.77,5.65-.6,11.42,.52,17.05l60.26,8.75c1.79-4.58,4-10.17,5.91-16.12l-66.68-9.68Z"/><path class="q" d="M360.72,341.46c-10.64-11.14-23.07-21.27-31.29-18.75-13.74,4.2-17,7.28-22,29.13s26,22.89,26,22.89l3.69-.64c13.16-4.88,22.76-17.53,23.59-32.63Z"/><path class="x" d="M330.92,324.27c-1.08-.51-2.15-.85-3.22-1.06-12.29,3.81-15.49,7.39-20.27,27.48-.55,2.31-.64,4.36-.41,6.21,2.58,3.37,6.26,6.37,10.75,8.48,11.56,5.43,24.16,2.97,28.14-5.5,3.98-8.47-3.43-30.18-14.99-35.61Z"/><rect class="o" x="299.24" y="327.32" width="12.46" height="71.8" rx="5" ry="5" transform="translate(-169.07 370.42) rotate(-50.81)"/><ellipse cx="326.68" cy="342.23" rx="7.62" ry="12.06" transform="translate(-146.13 359.26) rotate(-48.39)"/></g><g><path class="d" d="M554.42,565.36c4.06-9.22,20.16-11.04,35.99-4.06"/><path class="u" d="M697.39,577.23c10.79-7.32,28.25-2.98,35.18,4.29,6.1,6.4,4.88,26.67-17.94,31.47-20.36,4.28-72.1,1.6-71.31,.22,2.76-4.84,40.99-27.1,54.07-35.98Z"/><path class="w" d="M614.38,616.59c0,15.46,12.54,28,28,28,10.82,0,20.54-6.72,25.05-15.47,.84-1.63,3.2-6.34,2.95-12.53-.48-12.06-10.75-28-28-28-15.46,0-28,12.54-28,28Z"/><path class="i" d="M676.38,632.59c41,19,40.8,78.45-6,96-8,3-22.13,3.19-28-1-2.01-1.43,2.98-4.25,6-19,1.11-5.41-23-46-9-64,10.86-13.96,33.22-13.75,37-12Z"/><path class="o" d="M567.96,581.83c.17,19.61,16.3,35.36,36.03,35.19,13.81-.12,26.13-8.75,31.79-19.89,1.05-2.08,4.01-8.07,3.63-15.92-.74-15.28-14.03-35.38-36.03-35.19-19.73,.17-35.59,16.2-35.42,35.81Z"/><path class="v" d="M679.76,558.13c7-11,24.76-13.93,34-10,8.13,3.46,15.05,22.55-4,36-17,12-65.56,30.04-65.38,28.46,.62-5.54,26.89-41.12,35.38-54.46Z"/><path class="c" d="M603.38,559.59c0,55.27-44.73,100-100,100"/><path class="g" d="M555.38,550.59c6.37-7.81,22.37-5.29,35.78,5.64"/><path d="M642.38,727.59c-1.79-1.28,1.97-3.66,4.95-14.57,8.04,2.45,14.26,10.27,16.85,17.15-7.77,1.28-17.25,.67-21.79-2.58Z"/><path d="M703.75,662.92l-67.02,9.97c-1.34-5.77-2.06-11.54-1.55-16.76l60.04-8.93c3.82,4.76,6.67,10.1,8.53,15.72Z"/><path d="M705.87,672.07c.77,5.65,.6,11.42-.52,17.05l-60.26,8.75c-1.79-4.58-4-10.17-5.91-16.12l66.68-9.68Z"/><path class="v" d="M568.02,584.32c10.64-11.14,23.07-21.27,31.29-18.75,13.74,4.2,17,7.28,22,29.13,5,21.85-26,22.89-26,22.89l-3.69-.64c-13.16-4.88-22.76-17.53-23.59-32.63Z"/><path class="i" d="M597.82,567.13c1.08-.51,2.15-.85,3.22-1.06,12.29,3.81,15.49,7.39,20.27,27.48,.55,2.31,.64,4.36,.41,6.21-2.58,3.37-6.26,6.37-10.75,8.48-11.56,5.43-24.16,2.97-28.14-5.5-3.98-8.47,3.43-30.18,14.99-35.61Z"/><rect class="o" x="587.37" y="599.85" width="71.8" height="12.46" rx="5" ry="5" transform="translate(-242.78 530.25) rotate(-39.19)"/><ellipse cx="602.06" cy="585.09" rx="12.06" ry="7.62" transform="translate(-236.62 547.36) rotate(-41.61)"/></g></g></svg>