<?xml version="1.0" encoding="utf-8"?>
<!-- Generator: Adobe Illustrator 26.0.1, SVG Export Plug-In . SVG Version: 6.00 Build 0)  -->
<svg version="1.1" id="Layer_1" xmlns="http://www.w3.org/2000/svg" xmlns:xlink="http://www.w3.org/1999/xlink" x="0px" y="0px"
	 viewBox="0 0 1039.5 809" style="enable-background:new 0 0 1039.5 809;" xml:space="preserve">
<style type="text/css">
	.st0{fill:#5D2689;}
	.st1{fill:#8736AA;}
	.st2{fill:#F5BD1F;}
	.st3{fill:#FFFFFF;}
	.st4{fill:#D8D4DD;}
	.st5{fill:#D7CEEF;}
	.st6{fill:#FF605C;}
	.st7{fill:#FFBD44;}
	.st8{fill:#00CA4E;}
	.st9{fill:none;stroke:#6C4596;stroke-width:4;stroke-linecap:round;stroke-miterlimit:10;}
	.st10{fill:#9E70DF;}
	.st11{fill:#500075;}
	.st12{fill:#5B0080;}
	.st13{fill:#B7B7B7;}
	.st14{fill:#AF87E2;}
	.st15{fill:none;}
	.st16{fill:none;stroke:#7E5E9F;stroke-width:4;stroke-linecap:round;stroke-miterlimit:10;}
	.st17{fill:#350557;}
	.st18{fill:#BA97EE;}
	.st19{fill:none;stroke:#E2AE00;stroke-width:4;stroke-linecap:round;stroke-miterlimit:10;}
	.st20{fill:#BCDBE9;}
	.st21{fill:#DAAB00;}
	.st22{fill:#E8C000;}
	.st23{fill:#D1E7F1;}
	.st24{fill:none;stroke:#E5BE15;stroke-width:4;stroke-linecap:round;stroke-miterlimit:10;}
</style>
<g id="Layer_1_00000018197145838111295580000013597903824650570943_">
	<path class="st0" d="M107,240.5c80,104,212,141,250,205c40.8,68.8,68,157,174,208c172.5,83,329.5-25.7,393.5-55.5
		c20.4-9.5,60.5-25.7,115-46.8V0H237.1L0,1.5C96.7,98.2,44.8,159.6,107,240.5z"/>
	<circle class="st1" cx="73.5" cy="120" r="24"/>
	<circle class="st2" cx="59.5" cy="193" r="20"/>
	<circle class="st3" cx="404" cy="607.5" r="9.5"/>
	<path class="st4" d="M158.5,120h616c11,0,20,9,20,20v80c0,11-9,20-20,20h-616c-11,0-20-9-20-20v-80C138.5,129,147.5,120,158.5,120z
		"/>
	<rect x="138.5" y="199" class="st5" width="656" height="609"/>
	<circle class="st6" cx="752" cy="161.5" r="16"/>
	<circle class="st7" cx="691" cy="161.5" r="16"/>
	<circle class="st8" cx="627" cy="161.5" r="16"/>
	<path class="st3" d="M531,654.5c-106-51-133.2-139.2-174-208c-33.3-56.1-139-91.5-218.5-169.6V809h656V659.2
		C729.5,684.4,631.9,703,531,654.5z"/>
	<circle class="st0" cx="510" cy="713.5" r="26.5"/>
	<circle class="st2" cx="470.5" cy="674" r="13"/>
	<path class="st9" d="M375.8,323.5c-4.1-9.2-20.2-11-36-4.1"/>
	<path class="st10" d="M232.8,335.4c-10.8-7.3-28.2-3-35.2,4.3c-6.1,6.4-4.9,26.7,17.9,31.5c20.4,4.3,72.1,1.6,71.3,0.2
		C284.1,366.5,245.9,344.2,232.8,335.4z"/>
	<path class="st11" d="M315.8,374.7c0,15.5-12.5,28-28,28c-10.5-0.2-20.1-6.1-25-15.5c-2.1-3.8-3.1-8.2-3-12.5c0.5-12,10.8-28,28-28
		C303.3,346.7,315.8,359.3,315.8,374.7z"/>
	<path class="st12" d="M253.8,390.7c-41,19-40.8,78.4,6,96c8,3,22.1,3.2,28-1c2-1.4-3-4.2-6-19c-1.1-5.4,23-46,9-64
		C280,388.8,257.6,389,253.8,390.7z"/>
	<path class="st13" d="M362.2,340c-0.2,19.7-16.3,35.4-36,35.2c-13.8-0.1-26.1-8.8-31.8-19.9c-2.6-4.9-3.8-10.4-3.6-15.9
		c0.8-15.3,14-35.4,36-35.2C346.5,304.3,362.4,320.3,362.2,340C362.2,340,362.2,340,362.2,340z"/>
	<path class="st13" d="M305.8,345.7"/>
	<path class="st14" d="M250.5,316.3c-7-11-24.8-13.9-34-10c-8.1,3.5-15,22.5,4,36c17,12,65.6,30,65.4,28.5
		C285.2,365.2,258.9,329.6,250.5,316.3z"/>
	<path class="st15" d="M326.8,317.7c0,55.2,44.7,100,99.9,100c0,0,0.1,0,0.1,0"/>
	<path class="st16" d="M374.8,308.7c-6.4-7.8-22.4-5.3-35.8,5.6"/>
	<path class="st17" d="M287.8,485.7c1.8-1.3-2-3.6-4.9-14.6c-8,2.5-14.3,10.3-16.8,17.1C273.8,489.6,283.3,489,287.8,485.7z"/>
	<path class="st17" d="M226.5,421l67,10c1.4-5.5,1.9-11.1,1.5-16.8l-60-8.9C231.3,410,228.4,415.4,226.5,421z"/>
	<path class="st17" d="M224.3,430.2c-0.8,5.7-0.6,11.4,0.5,17l60.3,8.8c1.8-4.6,4-10.2,5.9-16.1L224.3,430.2z"/>
	<path class="st18" d="M362.2,342.5c-10.6-11.1-23.1-21.3-31.3-18.8c-13.7,4.2-17,7.3-22,29.1s26,22.9,26,22.9l3.7-0.6
		C352.2,369.9,361.5,357.1,362.2,342.5z"/>
	<path class="st12" d="M332.4,325.3c-1-0.5-2.1-0.8-3.2-1c-12.3,3.8-15.5,7.4-20.3,27.5c-0.5,2-0.7,4.1-0.4,6.2
		c2.9,3.6,6.5,6.5,10.8,8.5c11.6,5.4,24.2,3,28.1-5.5S344,330.7,332.4,325.3z"/>
	<path class="st13" d="M278.3,342.4l1.6-1.9c1.7-2.1,4.9-2.5,7-0.7l47.9,39.1c2.1,1.7,2.5,4.9,0.7,7l-1.6,1.9
		c-1.7,2.1-4.9,2.5-7,0.7L279,349.4C276.9,347.7,276.5,344.5,278.3,342.4z"/>
	<ellipse transform="matrix(0.6606 -0.7507 0.7507 0.6606 -148.3878 363.6451)" cx="328" cy="345.9" rx="7.6" ry="12"/>
	<path class="st19" d="M555.9,566.4c4.1-9.2,20.2-11,36-4.1"/>
	<path class="st20" d="M698.9,578.2c10.8-7.3,28.3-3,35.2,4.3c6.1,6.4,4.9,26.7-17.9,31.5c-20.4,4.3-72.1,1.6-71.3,0.2
		C647.6,609.4,685.8,587.1,698.9,578.2z"/>
	<path class="st21" d="M615.9,617.6c0,15.5,12.5,28,28,28c10.5-0.2,20.1-6.1,25-15.5c2.1-3.8,3.1-8.2,3-12.5c-0.5-12-10.8-28-28-28
		C628.4,589.6,615.9,602.1,615.9,617.6z"/>
	<path class="st22" d="M677.9,633.6c41,19,40.8,78.5-6,96c-8,3-22.1,3.2-28-1c-2-1.4,3-4.2,6-19c1.1-5.4-23-46-9-64
		C651.7,631.6,674.1,631.8,677.9,633.6z"/>
	<path class="st13" d="M569.4,582.8c0.2,19.7,16.4,35.4,36,35.2c0,0,0,0,0,0c13.8-0.1,26.1-8.8,31.8-19.9c2.6-4.9,3.8-10.4,3.6-15.9
		c-0.7-15.3-14-35.4-36-35.2C585.2,547.1,569.4,563.1,569.4,582.8C569.4,582.8,569.4,582.8,569.4,582.8z"/>
	<path class="st13" d="M625.9,588.6"/>
	<path class="st23" d="M681.2,559.1c7-11,24.8-13.9,34-10c8.1,3.5,15,22.5-4,36c-17,12-65.6,30-65.4,28.5
		C646.5,608.1,672.8,572.5,681.2,559.1z"/>
	<path class="st15" d="M604.9,560.6c0,55.2-44.7,100-99.9,100c0,0-0.1,0-0.1,0"/>
	<path class="st24" d="M556.9,551.6c6.4-7.8,22.4-5.3,35.8,5.6"/>
	<path d="M643.9,728.6c-1.8-1.3,2-3.7,4.9-14.6c8,2.5,14.3,10.3,16.8,17.2C657.9,732.5,648.4,731.8,643.9,728.6z"/>
	<path d="M705.2,663.9l-67,10c-1.4-5.5-1.9-11.1-1.6-16.8l60-8.9C700.4,652.9,703.3,658.2,705.2,663.9z"/>
	<path d="M707.3,673.1c0.8,5.7,0.6,11.4-0.5,17l-60.3,8.8c-1.8-4.6-4-10.2-5.9-16.1L707.3,673.1z"/>
	<path class="st23" d="M569.5,585.3c10.7-11.1,23.1-21.3,31.3-18.8c13.7,4.2,17,7.3,22,29.1s-26,22.9-26,22.9l-3.7-0.6
		C579.5,612.7,570.2,599.9,569.5,585.3z"/>
	<path class="st22" d="M599.3,568.1c1-0.5,2.1-0.8,3.2-1c12.3,3.8,15.5,7.4,20.3,27.5c0.5,2,0.6,4.1,0.4,6.2
		c-2.9,3.6-6.5,6.6-10.8,8.5c-11.6,5.4-24.2,3-28.1-5.5S587.7,573.6,599.3,568.1z"/>
	<path class="st13" d="M596.9,621.9l47.9-39.1c2.1-1.7,5.3-1.4,7,0.7l1.6,1.9c1.7,2.1,1.4,5.3-0.7,7l-47.9,39.1
		c-2.1,1.7-5.3,1.4-7-0.7l-1.6-1.9C594.4,626.8,594.8,623.7,596.9,621.9z"/>
	<ellipse transform="matrix(0.7477 -0.6641 0.6641 0.7477 -236.848 548.5998)" cx="603.5" cy="586" rx="12.1" ry="7.6"/>
</g>
</svg>
