<?xml version="1.0" encoding="UTF-8"?><svg id="a" xmlns="http://www.w3.org/2000/svg" viewBox="0 0 634 623.5"><defs><style>.b,.c{fill:none;}.d{fill:#f3bb29;}.e{fill:#edac27;}.f{fill:#e6a925;}.g{fill:#f0b930;}.h{fill:#8736aa;}.i{fill:#c0e0ea;}.j{fill:#bebebe;}.k{fill:#d4eaf1;}.l{opacity:.53;}.c{stroke:#666;stroke-miterlimit:10;stroke-width:41px;}</style></defs><circle class="c" cx="319" cy="245.5" r="225"/><rect class="h" y="245.5" width="621" height="364" rx="41.95" ry="41.95"/><g class="l"><path class="h" d="M619.8428,271.9322c-3.9305-3.8473-6.178-4.3251-4.9945-1.0619s2.1517,17.0797,2.1517,22.5797v260.1c0,5.5-1.8388,14.1071-4.0863,19.127l-28.7366,28.7367c-5.0198,2.2475-13.627,4.0863-19.127,4.0863H47.95c-5.5,0-13.2737-.446-17.2748-.9911s-10.3588-1.1036-6.6765,2.9818l21.4002,13.0468c5.2531,1.6293,14.0511,2.9624,19.5511,2.9624H582.05c5.5,0,14.1071-1.8388,19.127-4.0863l28.7366-28.7367c2.2475-5.0198,4.0863-13.627,4.0863-19.127V311.45c0-5.5-1.2654-14.3184-2.8119-19.5965l-11.3453-19.9212Z"/></g><g><path class="e" d="M245.5727,357.8667c-.2695,0-.543-.0547-.8057-.1709-1.0107-.4453-1.4688-1.626-1.0234-2.6367,2.2637-5.1387,7.6582-8.4365,15.1895-9.2871,7.1426-.8096,15.4668,.6846,23.4404,4.1992,1.0107,.4453,1.4688,1.626,1.0234,2.6367-.4463,1.0107-1.625,1.4668-2.6367,1.0234-7.3389-3.2334-14.9375-4.6133-21.3779-3.8848-6.0586,.6836-10.3115,3.1436-11.9785,6.9258-.3301,.748-1.0625,1.1943-1.8311,1.1943Z"/><path class="i" d="M388.5471,367.7348c10.7864-7.3249,28.2545-2.9767,35.179,4.2941,6.0957,6.4005,4.8849,26.6696-17.9403,31.4666-20.3638,4.2797-72.0955,1.6016-71.3067,.221,2.7637-4.8368,40.9876-27.0991,54.068-35.9818Z"/><path class="f" d="M305.5419,407.1028c0,15.464,12.536,28,28,28,10.8229,0,20.535-6.7246,25.0475-15.4714,.8409-1.6301,3.1982-6.3353,2.9525-12.5286-.4783-12.0557-10.75-28-28-28-15.464,0-28,12.536-28,28Z"/><path class="d" d="M367.5419,423.1028c41,19,40.7977,78.4509-6,96-8,3-22.1321,3.1914-28-1-2.0075-1.4339,2.9782-4.2494,6-19,1.1087-5.4123-23-46-9-64,10.8604-13.9634,33.2212-13.7512,37-12Z"/><path class="j" d="M259.1183,372.3367c.171,19.6053,16.3042,35.3591,36.0345,35.1871,13.8088-.1204,26.1261-8.7541,31.7868-19.8936,1.0549-2.076,4.0105-8.0676,3.6285-15.9167-.7435-15.279-14.0254-35.379-36.0345-35.1871-19.7303,.1721-35.5863,16.2049-35.4153,35.8102Z"/><path class="k" d="M370.9215,348.6389c7-11,24.7609-13.931,34-10,8.1332,3.4604,15.0548,22.5495-4,36-17,12-65.5567,30.044-65.3796,28.4639,.6204-5.5361,26.8909-41.1245,35.3796-54.4639Z"/><path class="b" d="M294.5419,350.1028c0,55.2734-44.7266,100-100,100"/><path class="g" d="M282.3218,348.7397c-.4443,0-.8916-.1475-1.2627-.4492-12.3105-10.0322-27.4102-12.7471-32.9668-5.9238-.6982,.8555-1.958,.9834-2.8145,.2871-.8564-.6982-.9844-1.958-.2871-2.8145,7.167-8.7959,24.1201-6.4443,38.5957,5.3496,.8564,.6982,.9844,1.958,.2871,2.8145-.3955,.4844-.9717,.7363-1.5518,.7363Z"/><path d="M333.5419,518.1028c-1.7874-1.2767,1.9683-3.6565,4.9463-14.5725,8.0447,2.4454,14.2585,10.2744,16.8458,17.1497-7.7678,1.2767-17.2508,.6666-21.7921-2.5771Z"/><path d="M394.9065,453.4249l-67.0214,9.9735c-1.3356-5.7707-2.0576-11.5432-1.5485-16.7573l60.0373-8.9343c3.8239,4.7631,6.6739,10.098,8.5326,15.7181Z"/><path d="M397.0296,462.5758c.7734,5.649,.6018,11.4197-.5164,17.0538l-60.2593,8.7457c-1.787-4.5755-4.0009-10.1706-5.9058-16.1217l66.6815-9.6777Z"/><path class="k" d="M259.1779,374.8281c10.6435-11.1363,23.0677-21.2657,31.2858-18.7507,13.736,4.2036,17,7.2836,22,29.1343,5,21.8507-26,22.8912-26,22.8912l-3.6913-.6402c-13.1572-4.8824-22.7593-17.5255-23.5945-32.6346Z"/><path class="d" d="M288.9763,357.643c1.0763-.5055,2.1506-.8511,3.2174-1.0574,12.2869,3.8086,15.4879,7.3917,20.27,27.4766,.5491,2.3063,.6431,4.3582,.4125,6.2072-2.5826,3.3692-6.2557,6.3655-10.7527,8.4775-11.5641,5.4313-24.1625,2.9702-28.1392-5.4969-3.9767-8.4671,3.4278-30.1757,14.9919-35.607Z"/><rect class="j" x="278.5277" y="390.3583" width="71.797" height="12.4598" rx="5" ry="5" transform="translate(-179.8825 287.9374) rotate(-39.195)"/><ellipse cx="293.2155" cy="375.5959" rx="12.0556" ry="7.6242" transform="translate(-175.4267 289.4443) rotate(-41.6055)"/></g></svg>