<?xml version="1.0" encoding="UTF-8"?><svg id="a" xmlns="http://www.w3.org/2000/svg" viewBox="0 0 499.0743 246.8085"><defs><style>.b,.c{fill:none;}.d{fill:#f3bb29;}.e{fill:#edac27;}.f{fill:#e6a925;}.g{fill:#f0b930;}.h{fill:#b8abec;}.i{fill:#bcbcbc;}.j{fill:#ad9de1;}.k{fill:#c0e0ea;}.l{fill:#bebebe;}.m{fill:#d4eaf1;}.n{fill:#8274a4;}.o{fill:#9b8dde;}.p{fill:#705f9c;}.q{fill:#352260;}.r{fill:#5e3488;}.s{fill:#522f7f;}.c{stroke:#352260;stroke-dasharray:0 0 20 45;stroke-miterlimit:10;stroke-width:6px;}</style></defs><path class="c" d="M52.8553,172.1797l55.4987-70.4926c72.1932-39.3585,219.5801-44.0754,289.03-6.4849l56.4507,62.4687"/><g><path class="e" d="M317.7824,23.3424c-.2695,0-.543-.0547-.8057-.1709-1.0107-.4453-1.4688-1.626-1.0234-2.6367,2.2637-5.1387,7.6582-8.4365,15.1895-9.2871,7.1426-.8096,15.4668,.6846,23.4404,4.1992,1.0107,.4453,1.4688,1.626,1.0234,2.6367-.4463,1.0107-1.625,1.4668-2.6367,1.0234-7.3389-3.2334-14.9375-4.6133-21.3779-3.8848-6.0586,.6836-10.3115,3.1436-11.9785,6.9258-.3301,.748-1.0625,1.1943-1.8311,1.1943Z"/><path class="k" d="M460.7567,33.2105c10.7864-7.3249,28.2545-2.9767,35.179,4.2941,6.0957,6.4005,4.8849,26.6696-17.9403,31.4666-20.3638,4.2797-72.0955,1.6016-71.3067,.221,2.7637-4.8368,40.9876-27.0991,54.068-35.9818Z"/><path class="f" d="M377.7516,72.5785c0,15.464,12.536,28,28,28,10.8229,0,20.535-6.7246,25.0475-15.4714,.8409-1.6301,3.1982-6.3353,2.9525-12.5286-.4783-12.0557-10.75-28-28-28-15.464,0-28,12.536-28,28Z"/><path class="d" d="M439.7516,88.5785c41,19,40.7977,78.4509-6,96-8,3-22.1321,3.1914-28-1-2.0075-1.4339,2.9782-4.2494,6-19,1.1087-5.4123-23-46-9-64,10.8604-13.9634,33.2212-13.7512,37-12Z"/><path class="l" d="M331.3279,37.8124c.171,19.6053,16.3042,35.3591,36.0345,35.1871,13.8088-.1204,26.1261-8.7541,31.7868-19.8936,1.0549-2.076,4.0105-8.0676,3.6285-15.9167-.7435-15.279-14.0254-35.379-36.0345-35.1871-19.7303,.1721-35.5863,16.2049-35.4153,35.8102Z"/><path class="m" d="M443.1312,14.1146c7-11,24.7609-13.931,34-10,8.1332,3.4604,15.0548,22.5495-4,36-17,12-65.5567,30.044-65.3796,28.4639,.6204-5.5361,26.8909-41.1245,35.3796-54.4639Z"/><path class="b" d="M366.7516,15.5785c0,55.2734-44.7266,100-100,100"/><path class="g" d="M354.5314,14.2154c-.4443,0-.8916-.1475-1.2627-.4492-12.3105-10.0322-27.4102-12.7471-32.9668-5.9238-.6982,.8555-1.958,.9834-2.8145,.2871-.8564-.6982-.9844-1.958-.2871-2.8145,7.167-8.7959,24.1201-6.4443,38.5957,5.3496,.8564,.6982,.9844,1.958,.2871,2.8145-.3955,.4844-.9717,.7363-1.5518,.7363Z"/><path d="M405.7516,183.5785c-1.7874-1.2767,1.9683-3.6565,4.9463-14.5725,8.0447,2.4454,14.2585,10.2744,16.8458,17.1497-7.7678,1.2767-17.2508,.6666-21.7921-2.5771Z"/><path d="M467.1162,118.9006l-67.0215,9.9735c-1.3356-5.7707-2.0576-11.5432-1.5485-16.7573l60.0374-8.9343c3.8239,4.7631,6.6738,10.098,8.5326,15.7181Z"/><path d="M469.2392,128.0515c.7734,5.649,.6018,11.4197-.5164,17.0538l-60.2593,8.7457c-1.787-4.5755-4.0009-10.1706-5.9058-16.1217l66.6815-9.6777Z"/><path class="m" d="M331.3876,40.3038c10.6435-11.1363,23.0677-21.2657,31.2858-18.7507,13.736,4.2036,17,7.2836,22,29.1343,5,21.8507-26,22.8912-26,22.8912l-3.6913-.6402c-13.1572-4.8824-22.7593-17.5255-23.5945-32.6346Z"/><path class="d" d="M361.186,23.1187c1.0763-.5055,2.1506-.8511,3.2174-1.0574,12.2869,3.8086,15.4879,7.3917,20.27,27.4766,.5491,2.3063,.6431,4.3582,.4125,6.2072-2.5826,3.3692-6.2557,6.3655-10.7527,8.4775-11.5641,5.4313-24.1625,2.9702-28.1392-5.4969-3.9767-8.4671,3.4278-30.1757,14.9919-35.607Z"/><rect class="l" x="350.7374" y="55.834" width="71.797" height="12.4598" rx="5" ry="5" transform="translate(47.771 258.3032) rotate(-39.195)"/><ellipse cx="365.4252" cy="41.0716" rx="12.0556" ry="7.6242" transform="translate(64.9127 253.0024) rotate(-41.6055)"/></g><g><path class="p" d="M181.2917,28.9552c-.7686,0-1.5015-.4453-1.8311-1.1938-3.5488-8.0527-18.8257-9.4438-33.3564-3.0405-1.0103,.4468-2.1909-.0122-2.6367-1.0234-.4453-1.0112,.0127-2.1914,1.0234-2.6367,17.0884-7.5293,34.0557-5.2939,38.6299,5.0874,.4453,1.0107-.0127,2.1914-1.0234,2.6367-.2622,.1157-.5361,.1704-.8057,.1704Z"/><path class="o" d="M38.3176,38.8241c-10.7864-7.3249-28.2545-2.9767-35.179,4.2941-6.0957,6.4005-4.8849,26.6696,17.9403,31.4666,20.3638,4.2797,72.0955,1.6016,71.3067,.221-2.7637-4.8368-40.9876-27.0991-54.068-35.9818Z"/><path class="s" d="M121.3227,78.1921c0,15.464-12.536,28-28,28-10.8229,0-20.535-6.7246-25.0475-15.4714-.8409-1.6301-3.1982-6.3353-2.9525-12.5286,.4783-12.0557,10.75-28,28-28,15.464,0,28,12.536,28,28Z"/><path class="r" d="M59.3227,94.1921c-41,19-40.7977,78.4509,6,96,8,3,22.1321,3.1913,28-1,2.0075-1.4339-2.9783-4.2493-6-19-1.1088-5.4123,23-46,9-64-10.8605-13.9634-33.2212-13.7512-37-12Z"/><path class="i" d="M167.7464,43.426c-.171,19.6053-16.3042,35.3591-36.0345,35.1871-13.8088-.1204-26.1261-8.7541-31.7868-19.8936-1.0549-2.076-4.0105-8.0676-3.6285-15.9167,.7435-15.279,14.0254-35.379,36.0345-35.1871,19.7303,.1721,35.5863,16.2049,35.4153,35.8102Z"/><path class="j" d="M55.9431,19.7282c-7-11-24.7609-13.931-34-10-8.1332,3.4604-15.0548,22.5495,4,36,17,12,65.5567,30.044,65.3796,28.4639-.6204-5.5361-26.8909-41.1245-35.3796-54.4639Z"/><path class="b" d="M132.3227,21.1921c0,55.2734,44.7266,100,100,100"/><path class="n" d="M144.5431,19.8292c-.5806,0-1.1562-.2515-1.5513-.7368-.6978-.856-.5693-2.1157,.2871-2.8135,14.4741-11.7944,31.4272-14.144,38.5942-5.3506,.6978,.8564,.5693,2.1162-.2866,2.814-.8564,.6973-2.1172,.5693-2.814-.2866-5.5591-6.8213-20.6558-4.1079-32.9673,5.9238-.3711,.3027-.8179,.4497-1.2622,.4497Z"/><path class="q" d="M93.3227,189.1921c1.7874-1.2767-1.9683-3.6565-4.9463-14.5725-8.0447,2.4454-14.2585,10.2744-16.8458,17.1497,7.7678,1.2767,17.2508,.6666,21.7921-2.5771Z"/><path class="q" d="M31.9581,124.5142l67.0214,9.9735c1.3356-5.7707,2.0576-11.5432,1.5485-16.7573l-60.0373-8.9343c-3.8239,4.7631-6.6739,10.098-8.5326,15.7181Z"/><path class="q" d="M29.8351,133.6651c-.7734,5.649-.6018,11.4197,.5164,17.0538l60.2593,8.7457c1.787-4.5755,4.0009-10.1706,5.9058-16.1217l-66.6815-9.6777Z"/><path class="h" d="M167.6867,45.9173c-10.6435-11.1363-23.0677-21.2657-31.2858-18.7507-13.736,4.2036-17,7.2836-22,29.1343-5,21.8507,26,22.8912,26,22.8912l3.6913-.6402c13.1572-4.8824,22.7593-17.5255,23.5945-32.6346Z"/><path class="r" d="M137.8884,28.7323c-1.0763-.5055-2.1506-.8511-3.2174-1.0574-12.2869,3.8086-15.4879,7.3917-20.27,27.4766-.5491,2.3063-.6431,4.3582-.4125,6.2072,2.5826,3.3692,6.2557,6.3655,10.7527,8.4775,11.5641,5.4313,24.1625,2.9702,28.1392-5.4969,3.9767-8.4671-3.4278-30.1757-14.9919-35.607Z"/><rect class="i" x="106.2086" y="31.779" width="12.4598" height="71.797" rx="5" ry="5" transform="translate(-11.0683 112.0478) rotate(-50.805)"/><ellipse cx="133.6491" cy="46.6851" rx="7.6242" ry="12.0556" transform="translate(9.9983 115.6204) rotate(-48.3945)"/></g><path class="c" d="M46.6131,141.0651l55.4987,70.4926c72.1932,39.3585,219.5801,44.0754,289.03,6.4849l56.4507-62.4687"/></svg>